<?xml version="1.0" encoding="UTF-8" standalone="no"?>
<!DOCTYPE svg PUBLIC "-//W3C//DTD SVG 1.1//EN" "http://www.w3.org/Graphics/SVG/1.1/DTD/svg11.dtd">
<!-- Created with Vectornator (http://vectornator.io/) -->
<svg height="100%" stroke-miterlimit="10" style="fill-rule:nonzero;clip-rule:evenodd;stroke-linecap:round;stroke-linejoin:round;" version="1.1" viewBox="0 0 1024 1024" width="100%" xml:space="preserve" xmlns="http://www.w3.org/2000/svg" xmlns:xlink="http://www.w3.org/1999/xlink">
<defs>
<linearGradient gradientTransform="matrix(957.853 -1165.04 1105.16 975.72 59.1017 1148.87)" gradientUnits="userSpaceOnUse" id="LinearGradient" x1="0" x2="1" y1="0" y2="0">
<stop offset="0" stop-color="#7d97cc"/>
<stop offset="1" stop-color="#ebc3f6"/>
</linearGradient>
<filter color-interpolation-filters="sRGB" filterUnits="userSpaceOnUse" height="1436.25" id="Filter" width="1410.74" x="-231.392" y="-200.163">
<feDropShadow dx="5.52426" dy="5.52428" flood-color="#ffffff" flood-opacity="1" in="SourceGraphic" result="Shadow" stdDeviation="125"/>
</filter>
</defs>
<clipPath id="ArtboardFrame">
<rect height="1024" width="1024" x="0" y="0"/>
</clipPath>
<g clip-path="url(#ArtboardFrame)" id="图层-1">
<path d="M0-19.1008L1024-19.1008L1024 1024L0 1024L0-19.1008Z" fill="url(#LinearGradient)" fill-rule="nonzero" opacity="1" stroke="none"/>
<g fill="#ffffff" filter="url(#Filter)" stroke="#ffffff" stroke-linecap="butt" stroke-linejoin="round" stroke-opacity="0.172907" stroke-width="9.37358">
<path d="M268.461 232.552L187.657 232.496L187.677 204.281C187.689 186.496 186.929 175.363 185.397 170.883C183.865 166.404 180.219 164.162 174.461 164.158C169.471 164.154 166.079 166.071 164.285 169.909C162.491 173.746 161.588 183.598 161.577 199.465L161.473 348.598C161.463 362.545 162.352 371.726 164.141 376.142C165.929 380.558 169.51 382.768 174.884 382.771C180.77 382.776 184.771 380.283 186.885 375.294C189 370.306 190.063 360.582 190.073 346.123L190.098 309.271L173.784 309.26L173.817 262.044L268.441 262.11L268.324 428.901L217.461 428.865L209.992 406.596C204.483 416.189 197.536 423.381 189.152 428.174C180.767 432.966 170.881 435.359 159.493 435.351C145.929 435.341 133.232 432.037 121.401 425.439C109.569 418.841 100.586 410.678 94.451 400.949C88.3159 391.22 84.4844 381.013 82.9564 370.327C81.4284 359.642 80.6718 343.615 80.6868 322.246L80.7514 229.926C80.7722 200.24 82.3867 178.68 85.595 165.247C88.8033 151.814 97.9928 139.505 113.163 128.319C128.334 117.134 147.947 111.549 172.003 111.566C195.675 111.583 215.313 116.459 230.917 126.194C246.521 135.93 256.685 147.485 261.41 160.86C266.135 174.235 268.489 193.654 268.471 219.117L268.461 232.552Z"/>
<path d="M377.368 118.236L377.151 428.977L297.306 428.921L297.523 118.18L377.368 118.236Z"/>
<path d="M580.525 263.864L580.481 326.243C580.465 349.147 579.302 365.94 576.991 376.623C574.68 387.306 569.747 397.283 562.191 406.554C554.635 415.826 544.938 422.665 533.099 427.071C521.26 431.477 507.663 433.675 492.308 433.664C475.162 433.652 460.64 431.755 448.743 427.972C436.846 424.189 427.605 418.488 421.02 410.87C414.436 403.252 409.74 394.036 406.933 383.222C404.125 372.407 402.729 356.188 402.744 334.563L402.79 269.306C402.806 245.634 405.378 227.146 410.506 213.842C415.633 200.538 424.854 189.86 438.167 181.808C451.48 173.757 468.501 169.738 489.23 169.752C506.632 169.765 521.569 172.366 534.041 177.557C546.513 182.748 556.137 189.504 562.913 197.826C569.689 206.148 574.321 214.725 576.81 223.555C579.299 232.386 580.537 245.822 580.525 263.864ZM502.997 244.616C503.006 231.565 502.308 223.343 500.903 219.951C499.498 216.56 496.492 214.862 491.885 214.859C487.279 214.856 484.207 216.549 482.669 219.939C481.131 223.328 480.358 231.549 480.348 244.601L480.268 359.569C480.26 371.597 481.022 379.435 482.555 383.083C484.088 386.731 487.093 388.556 491.572 388.559C496.178 388.562 499.218 386.901 500.692 383.575C502.166 380.249 502.907 373.084 502.915 362.08L502.997 244.616Z"/>
<path d="M856.589 174.616L825.509 429.291L741.25 429.232C736.665 398.135 731.384 357.186 725.405 306.383C723.343 328.646 720.448 351.164 716.721 373.938L708.045 429.209L623.786 429.15L591.144 174.43L657.937 174.477C658.444 181.131 664.04 229.694 674.725 320.167C675.499 310.954 681.291 262.399 692.101 174.501L756.399 174.546L772.036 320.235C774.497 277.755 780.417 229.2 789.796 174.569L856.589 174.616Z"/>
<path d="M82.7974 597.482L217.535 597.576L217.492 659.763L163.558 659.725L163.517 718.649L213.996 718.684L213.954 777.8L163.476 777.764L163.428 846.093L222.735 846.134L222.692 908.321L82.5799 908.223L82.7974 597.482Z"/>
<path d="M404.056 653.751L367.602 908.423L266.453 908.352L227.669 653.628L296.957 653.676L318.515 839.484C320.188 825.922 323.027 792.655 327.03 739.684C329.354 710.128 331.933 681.467 334.768 653.703L404.056 653.751Z"/>
<path d="M591.1 785.741L490.718 785.671L490.68 840.756C490.672 852.272 491.498 859.694 493.159 863.022C494.82 866.35 498.018 868.016 502.752 868.019C508.638 868.023 512.575 865.819 514.561 861.406C516.547 856.992 517.545 848.452 517.554 835.784L517.577 802.196L591.088 802.247L591.075 821.057C591.064 836.795 590.064 848.887 588.075 857.33C586.085 865.774 581.441 874.792 574.141 884.383C566.84 893.975 557.59 901.166 546.391 905.957C535.191 910.747 521.147 913.136 504.256 913.125C487.878 913.113 473.421 910.736 460.884 905.993C448.348 901.25 438.596 894.749 431.628 886.491C424.66 878.233 419.836 869.145 417.156 859.226C414.476 849.308 413.142 834.88 413.155 815.942L413.207 741.664C413.223 719.399 416.242 701.839 422.265 688.984C428.288 676.128 438.148 666.283 451.844 659.447C465.54 652.611 481.281 649.199 499.067 649.211C520.819 649.226 538.762 653.366 552.896 661.629C567.029 669.892 576.938 680.839 582.623 694.47C588.307 708.102 591.141 727.265 591.123 751.961L591.1 785.741ZM513.395 744.229L513.408 725.611C513.418 712.432 512.72 703.922 511.315 700.082C509.91 696.243 507.033 694.321 502.682 694.318C497.308 694.315 493.98 695.944 492.698 699.206C491.416 702.468 490.77 711.264 490.76 725.595L490.747 744.213L513.395 744.229Z"/>
</g>
</g>
</svg>
