<?xml version="1.0" encoding="UTF-8" standalone="no"?>
<!DOCTYPE svg PUBLIC "-//W3C//DTD SVG 1.1//EN" "http://www.w3.org/Graphics/SVG/1.1/DTD/svg11.dtd">
<!-- Created with Vectornator (http://vectornator.io/) -->
<svg height="100%" stroke-miterlimit="10" style="fill-rule:nonzero;clip-rule:evenodd;stroke-linecap:round;stroke-linejoin:round;" version="1.1" viewBox="0 0 1024 1024" width="100%" xml:space="preserve" xmlns="http://www.w3.org/2000/svg" xmlns:xlink="http://www.w3.org/1999/xlink">
<defs>
<linearGradient gradientTransform="matrix(957.853 -1165.04 1105.16 975.72 59.1017 1148.87)" gradientUnits="userSpaceOnUse" id="LinearGradient" x1="0" x2="1" y1="0" y2="0">
<stop offset="0" stop-color="#7d97cc"/>
<stop offset="1" stop-color="#ebc3f6"/>
</linearGradient>
<filter color-interpolation-filters="sRGB" filterUnits="userSpaceOnUse" height="1099.13" id="Filter" width="1084.35" x="-180.032" y="-31.8772">
<feDropShadow dx="5.52426" dy="5.52428" flood-color="#ffffff" flood-opacity="1" in="SourceGraphic" result="Shadow" stdDeviation="125"/>
</filter>
</defs>
<clipPath id="ArtboardFrame">
<rect height="1024" width="1024" x="0" y="0"/>
</clipPath>
<g clip-path="url(#ArtboardFrame)" id="图层-1">
<path d="M0-19.1008L1024-19.1008L1024 1024L0 1024L0-19.1008Z" fill="url(#LinearGradient)" fill-rule="nonzero" opacity="1" stroke="none"/>
<g fill="#ffffff" filter="url(#Filter)" stroke="#ffffff" stroke-linecap="butt" stroke-linejoin="round" stroke-opacity="0.172907" stroke-width="9.37358">
<path d="M240.705 349.947L193.872 349.915L193.883 333.562C193.89 323.254 193.45 316.801 192.562 314.205C191.674 311.609 189.561 310.309 186.224 310.307C183.331 310.305 181.365 311.416 180.326 313.64C179.286 315.864 178.763 321.574 178.756 330.77L178.696 417.206C178.69 425.289 179.205 430.611 180.242 433.17C181.278 435.729 183.354 437.01 186.469 437.012C189.88 437.015 192.199 435.57 193.425 432.679C194.65 429.787 195.266 424.151 195.272 415.771L195.287 394.413L185.831 394.406L185.85 367.04L240.693 367.079L240.625 463.748L211.146 463.728L206.817 450.82C203.624 456.38 199.598 460.549 194.738 463.327C189.878 466.104 184.149 467.491 177.548 467.486C169.687 467.481 162.328 465.566 155.471 461.742C148.613 457.918 143.407 453.186 139.851 447.548C136.295 441.909 134.074 435.993 133.189 429.8C132.303 423.607 131.865 414.318 131.873 401.933L131.911 348.425C131.923 331.22 132.859 318.724 134.718 310.938C136.578 303.153 141.904 296.018 150.696 289.535C159.489 283.052 170.857 279.816 184.799 279.826C198.519 279.835 209.901 282.661 218.944 288.304C227.988 293.946 233.879 300.644 236.618 308.395C239.356 316.147 240.721 327.402 240.71 342.16L240.705 349.947Z"/>
<path d="M303.826 283.691L303.7 463.792L257.423 463.76L257.549 283.659L303.826 283.691Z"/>
<path d="M421.572 368.095L421.547 404.249C421.538 417.524 420.863 427.257 419.524 433.449C418.185 439.64 415.326 445.423 410.946 450.796C406.567 456.17 400.946 460.134 394.085 462.688C387.223 465.241 379.342 466.515 370.443 466.509C360.505 466.502 352.089 465.402 345.193 463.21C338.298 461.017 332.942 457.713 329.126 453.298C325.31 448.882 322.588 443.541 320.961 437.273C319.333 431.005 318.524 421.605 318.533 409.072L318.56 371.249C318.569 357.529 320.06 346.814 323.032 339.103C326.004 331.393 331.348 325.204 339.064 320.537C346.78 315.87 356.645 313.541 368.659 313.549C378.745 313.556 387.402 315.064 394.631 318.073C401.859 321.082 407.437 324.997 411.365 329.821C415.292 334.644 417.977 339.615 419.419 344.733C420.862 349.851 421.579 357.638 421.572 368.095ZM376.638 356.94C376.643 349.375 376.239 344.61 375.424 342.644C374.61 340.678 372.868 339.694 370.198 339.692C367.528 339.691 365.748 340.672 364.856 342.637C363.965 344.601 363.517 349.366 363.511 356.93L363.465 423.564C363.46 430.536 363.902 435.078 364.79 437.193C365.679 439.307 367.421 440.365 370.016 440.367C372.686 440.368 374.448 439.406 375.302 437.478C376.157 435.55 376.586 431.398 376.59 425.02L376.638 356.94Z"/>
<path d="M581.575 316.368L563.561 463.974L514.726 463.94C512.069 445.917 509.008 422.183 505.543 392.739C504.347 405.642 502.669 418.693 500.51 431.892L495.481 463.927L446.646 463.892L427.727 316.261L466.439 316.288C466.733 320.144 469.976 348.291 476.169 400.727C476.618 395.388 479.975 367.246 486.24 316.302L523.506 316.328L532.569 400.767C533.995 376.146 537.427 348.004 542.862 316.341L581.575 316.368Z"/>
<path d="M133.097 561.455L211.189 561.51L211.164 597.552L179.904 597.53L179.881 631.682L209.137 631.702L209.113 665.965L179.857 665.944L179.829 705.546L214.203 705.571L214.178 741.613L132.971 741.556L133.097 561.455Z"/>
<path d="M319.294 594.068L298.165 741.672L239.541 741.631L217.062 593.996L257.22 594.025L269.715 701.716C270.685 693.855 272.33 674.575 274.65 643.873C275.997 626.743 277.492 610.132 279.135 594.04L319.294 594.068Z"/>
<path d="M427.701 670.567L369.522 670.527L369.499 702.453C369.495 709.128 369.974 713.429 370.936 715.358C371.899 717.287 373.752 718.253 376.496 718.254C379.908 718.257 382.189 716.979 383.34 714.421C384.492 711.864 385.07 706.914 385.075 699.572L385.089 680.104L427.695 680.134L427.687 691.036C427.681 700.158 427.101 707.166 425.948 712.06C424.795 716.953 422.103 722.18 417.872 727.739C413.641 733.298 408.28 737.466 401.789 740.243C395.298 743.019 387.157 744.404 377.368 744.397C367.875 744.39 359.496 743.013 352.23 740.263C344.964 737.514 339.312 733.747 335.274 728.961C331.235 724.174 328.439 718.907 326.886 713.158C325.333 707.41 324.56 699.047 324.567 688.071L324.597 645.021C324.607 632.117 326.356 621.939 329.847 614.488C333.338 607.038 339.052 601.331 346.991 597.369C354.929 593.407 364.052 591.43 374.36 591.437C386.968 591.446 397.367 593.845 405.559 598.634C413.75 603.423 419.493 609.768 422.788 617.668C426.083 625.569 427.725 636.676 427.715 650.989L427.701 670.567ZM382.665 646.508L382.672 635.717C382.678 628.078 382.273 623.146 381.459 620.921C380.645 618.696 378.977 617.582 376.456 617.58C373.341 617.578 371.412 618.522 370.669 620.413C369.926 622.303 369.552 627.402 369.546 635.708L369.538 646.498L382.665 646.508Z"/>
</g>
</g>
</svg>
