<?xml version="1.0" encoding="UTF-8" standalone="no"?>
<!DOCTYPE svg PUBLIC "-//W3C//DTD SVG 1.1//EN" "http://www.w3.org/Graphics/SVG/1.1/DTD/svg11.dtd">
<!-- Created with Vectornator (http://vectornator.io/) -->
<svg height="100%" stroke-miterlimit="10" style="fill-rule:nonzero;clip-rule:evenodd;stroke-linecap:round;stroke-linejoin:round;" version="1.1" viewBox="0 0 1024 1024" width="100%" xml:space="preserve" xmlns="http://www.w3.org/2000/svg" xmlns:xlink="http://www.w3.org/1999/xlink">
<defs>
<linearGradient gradientTransform="matrix(1109.28 -1212.86 1212.86 1109.28 -85.7729 1234.45)" gradientUnits="userSpaceOnUse" id="LinearGradient" x1="0" x2="1" y1="0" y2="0">
<stop offset="0" stop-color="#7d97cc"/>
<stop offset="1" stop-color="#ebc3f6"/>
</linearGradient>
<filter color-interpolation-filters="sRGB" filterUnits="userSpaceOnUse" height="747.24" id="Filter" width="747.24" x="138.38" y="138.38">
<feDropShadow dx="0" dy="0" flood-color="#ffffff" flood-opacity="1" in="SourceGraphic" result="Shadow" stdDeviation="27.3622"/>
</filter>
</defs>
<clipPath id="ArtboardFrame">
<rect height="1024" width="1024" x="0" y="0"/>
</clipPath>
<g clip-path="url(#ArtboardFrame)" id="图层-2">
<path d="M-1.13687e-13 5.68434e-14L1024 5.68434e-14L1024 1024L-1.13687e-13 1024L-1.13687e-13 5.68434e-14Z" fill="url(#LinearGradient)" fill-rule="nonzero" opacity="1" stroke="none"/>
<path d="M362 212C279.157 212 212 279.157 212 362C212 444.843 279.157 512 362 512L362 362L512 362C512 279.157 444.843 212 362 212ZM512 362L662 362L662 512C744.843 512 812 444.843 812 362C812 279.157 744.843 212 662 212C579.157 212 512 279.157 512 362ZM512 362C512 444.843 444.843 512 362 512C444.843 512 512 579.157 512 662C512 579.157 579.157 512 662 512C579.157 512 512 444.843 512 362ZM662 512L662 662L512 662C512 744.843 579.157 812 662 812C744.843 812 812 744.843 812 662C812 579.157 744.843 512 662 512ZM512 662L362 662L362 512C279.157 512 212 579.157 212 662C212 744.843 279.157 812 362 812C444.843 812 512 744.843 512 662Z" fill="#f1f4ff" fill-rule="nonzero" filter="url(#Filter)" stroke="#ffffff" stroke-linecap="butt" stroke-linejoin="round" stroke-opacity="0.298159" stroke-width="10.4289"/>
</g>
</svg>
